<?xml version="1.0" standalone="no"?>
<!DOCTYPE svg PUBLIC "-//W3C//DTD SVG 20010904//EN"
 "http://www.w3.org/TR/2001/REC-SVG-20010904/DTD/svg10.dtd">
<svg version="1.0" xmlns="http://www.w3.org/2000/svg"
 width="512.000000pt" height="512.000000pt" viewBox="0 0 512.000000 512.000000"
 preserveAspectRatio="xMidYMid meet">

<g transform="translate(0.000000,512.000000) scale(0.100000,-0.100000)"
fill="#000000" stroke="none">
<path d="M3750 3810 c-206 -329 -378 -595 -381 -591 -4 3 -21 67 -39 141 -18
74 -36 141 -40 148 -4 8 -69 -171 -154 -419 -80 -237 -144 -434 -142 -436 2
-3 140 59 305 136 165 78 303 141 306 141 3 0 5 -63 5 -140 0 -105 3 -140 13
-140 6 0 290 111 629 247 l616 248 -116 7 c-64 5 -220 11 -345 15 l-229 8 232
333 c128 184 230 335 228 337 -1 1 -162 -82 -357 -186 -195 -104 -355 -188
-357 -186 -2 1 44 211 101 467 58 255 104 464 102 466 -1 1 -171 -267 -377
-596z"/>
<path d="M1945 4029 c-105 -48 -151 -74 -152 -86 -2 -10 33 -135 76 -277 44
-143 78 -263 76 -266 -2 -3 -402 -185 -888 -404 l-885 -398 63 -137 c41 -90
67 -135 76 -133 8 2 394 174 859 384 465 209 859 386 876 394 l31 13 149 -244
c82 -134 152 -244 157 -245 14 0 487 214 487 222 0 4 -47 162 -104 352 l-105
344 -276 273 c-152 151 -280 275 -283 276 -4 0 -74 -30 -157 -68z"/>
<path d="M1980 2350 l0 -100 -445 0 c-245 0 -445 -2 -445 -5 0 -3 18 -40 39
-83 148 -292 425 -522 759 -631 l87 -29 3 -161 2 -161 290 0 c160 0 290 -4
290 -8 0 -20 -109 -224 -162 -302 -79 -119 -197 -258 -317 -372 l-102 -98
-129 0 -130 0 0 -95 0 -95 1423 2 1422 3 3 93 3 92 -140 0 -139 0 -54 42
c-155 122 -346 333 -438 483 -46 74 -120 225 -120 244 0 8 92 11 315 11 l315
0 0 143 0 143 80 33 c139 58 423 241 493 319 17 19 17 21 -24 56 -72 61 -181
132 -276 180 -85 43 -229 96 -259 96 -11 0 -14 30 -14 150 l0 150 -1165 0
-1165 0 0 -100z"/>
</g>
</svg>
